<mxfile host="app.diagrams.net" modified="2023-07-06T20:20:44.612Z" agent="Mozilla/5.0 (X11; Linux x86_64) AppleWebKit/537.36 (KHTML, like Gecko) Chrome/114.0.0.0 Safari/537.36" etag="UvN9wF8ZrjxBk_Za_NQn" version="21.6.1" type="github">
  <diagram id="prtHgNgQTEPvFCAcTncT" name="Page-1">
    <mxGraphModel dx="1360" dy="811" grid="1" gridSize="10" guides="1" tooltips="1" connect="1" arrows="1" fold="1" page="1" pageScale="1" pageWidth="827" pageHeight="1169" math="0" shadow="0">
      <root>
        <mxCell id="0" />
        <mxCell id="1" parent="0" />
        <mxCell id="3Z4cpMTlICbvrC6FYX22-12" value="Hierarquia de Notebooks" style="swimlane;startSize=20;horizontal=1;containerType=tree;newEdgeStyle={&quot;edgeStyle&quot;:&quot;elbowEdgeStyle&quot;,&quot;startArrow&quot;:&quot;none&quot;,&quot;endArrow&quot;:&quot;none&quot;};" vertex="1" parent="1">
          <mxGeometry x="40" y="20" width="940" height="1350" as="geometry" />
        </mxCell>
        <mxCell id="3Z4cpMTlICbvrC6FYX22-38" style="edgeStyle=orthogonalEdgeStyle;rounded=0;orthogonalLoop=1;jettySize=auto;html=1;entryX=0.5;entryY=0;entryDx=0;entryDy=0;" edge="1" parent="3Z4cpMTlICbvrC6FYX22-12" source="3Z4cpMTlICbvrC6FYX22-18" target="3Z4cpMTlICbvrC6FYX22-21">
          <mxGeometry relative="1" as="geometry" />
        </mxCell>
        <mxCell id="3Z4cpMTlICbvrC6FYX22-18" value="Data Acquisition Notebooks" style="swimlane;" vertex="1" parent="3Z4cpMTlICbvrC6FYX22-12">
          <mxGeometry x="110" y="40" width="720" height="200" as="geometry" />
        </mxCell>
        <mxCell id="3Z4cpMTlICbvrC6FYX22-17" value="Accountability" style="whiteSpace=wrap;html=1;align=center;verticalAlign=middle;treeFolding=1;treeMoving=1;newEdgeStyle={&quot;edgeStyle&quot;:&quot;elbowEdgeStyle&quot;,&quot;startArrow&quot;:&quot;none&quot;,&quot;endArrow&quot;:&quot;none&quot;};" vertex="1" parent="3Z4cpMTlICbvrC6FYX22-18">
          <mxGeometry x="600" y="130" width="100" height="60" as="geometry" />
        </mxCell>
        <UserObject label="Data_Ac" treeRoot="1" id="3Z4cpMTlICbvrC6FYX22-15">
          <mxCell style="whiteSpace=wrap;html=1;align=center;treeFolding=1;treeMoving=1;newEdgeStyle={&quot;edgeStyle&quot;:&quot;elbowEdgeStyle&quot;,&quot;startArrow&quot;:&quot;none&quot;,&quot;endArrow&quot;:&quot;none&quot;};" vertex="1" parent="3Z4cpMTlICbvrC6FYX22-18">
            <mxGeometry x="300" y="40" width="120" height="60" as="geometry" />
          </mxCell>
        </UserObject>
        <mxCell id="3Z4cpMTlICbvrC6FYX22-14" value="" style="edgeStyle=elbowEdgeStyle;elbow=vertical;sourcePerimeterSpacing=0;targetPerimeterSpacing=0;startArrow=none;endArrow=none;rounded=0;curved=0;" edge="1" parent="3Z4cpMTlICbvrC6FYX22-18" source="3Z4cpMTlICbvrC6FYX22-15" target="3Z4cpMTlICbvrC6FYX22-17">
          <mxGeometry relative="1" as="geometry" />
        </mxCell>
        <mxCell id="3Z4cpMTlICbvrC6FYX22-16" value="Price_history" style="whiteSpace=wrap;html=1;align=center;verticalAlign=middle;treeFolding=1;treeMoving=1;newEdgeStyle={&quot;edgeStyle&quot;:&quot;elbowEdgeStyle&quot;,&quot;startArrow&quot;:&quot;none&quot;,&quot;endArrow&quot;:&quot;none&quot;};" vertex="1" parent="3Z4cpMTlICbvrC6FYX22-18">
          <mxGeometry x="30" y="130" width="100" height="60" as="geometry" />
        </mxCell>
        <mxCell id="3Z4cpMTlICbvrC6FYX22-13" value="" style="edgeStyle=elbowEdgeStyle;elbow=vertical;sourcePerimeterSpacing=0;targetPerimeterSpacing=0;startArrow=none;endArrow=none;rounded=0;curved=0;" edge="1" parent="3Z4cpMTlICbvrC6FYX22-18" source="3Z4cpMTlICbvrC6FYX22-15" target="3Z4cpMTlICbvrC6FYX22-16">
          <mxGeometry relative="1" as="geometry" />
        </mxCell>
        <mxCell id="3Z4cpMTlICbvrC6FYX22-19" value="Balance_history" style="whiteSpace=wrap;html=1;align=center;verticalAlign=middle;treeFolding=1;treeMoving=1;newEdgeStyle={&quot;edgeStyle&quot;:&quot;elbowEdgeStyle&quot;,&quot;startArrow&quot;:&quot;none&quot;,&quot;endArrow&quot;:&quot;none&quot;};" vertex="1" parent="3Z4cpMTlICbvrC6FYX22-18">
          <mxGeometry x="150" y="130" width="100" height="60" as="geometry" />
        </mxCell>
        <mxCell id="3Z4cpMTlICbvrC6FYX22-20" value="" style="edgeStyle=elbowEdgeStyle;elbow=vertical;sourcePerimeterSpacing=0;targetPerimeterSpacing=0;startArrow=none;endArrow=none;rounded=0;curved=0;entryX=0.5;entryY=0;entryDx=0;entryDy=0;exitX=0.5;exitY=1;exitDx=0;exitDy=0;" edge="1" parent="3Z4cpMTlICbvrC6FYX22-18" source="3Z4cpMTlICbvrC6FYX22-15" target="3Z4cpMTlICbvrC6FYX22-19">
          <mxGeometry relative="1" as="geometry">
            <mxPoint x="290" y="100" as="sourcePoint" />
            <mxPoint x="20" y="140" as="targetPoint" />
          </mxGeometry>
        </mxCell>
        <mxCell id="3Z4cpMTlICbvrC6FYX22-28" value="Accountability&lt;br&gt;_history" style="whiteSpace=wrap;html=1;align=center;verticalAlign=middle;treeFolding=1;treeMoving=1;newEdgeStyle={&quot;edgeStyle&quot;:&quot;elbowEdgeStyle&quot;,&quot;startArrow&quot;:&quot;none&quot;,&quot;endArrow&quot;:&quot;none&quot;};" vertex="1" parent="3Z4cpMTlICbvrC6FYX22-18">
          <mxGeometry x="264" y="130" width="100" height="60" as="geometry" />
        </mxCell>
        <mxCell id="3Z4cpMTlICbvrC6FYX22-31" value="Balance" style="whiteSpace=wrap;html=1;align=center;verticalAlign=middle;treeFolding=1;treeMoving=1;newEdgeStyle={&quot;edgeStyle&quot;:&quot;elbowEdgeStyle&quot;,&quot;startArrow&quot;:&quot;none&quot;,&quot;endArrow&quot;:&quot;none&quot;};" vertex="1" parent="3Z4cpMTlICbvrC6FYX22-18">
          <mxGeometry x="490" y="130" width="100" height="60" as="geometry" />
        </mxCell>
        <mxCell id="3Z4cpMTlICbvrC6FYX22-32" value="Price" style="whiteSpace=wrap;html=1;align=center;verticalAlign=middle;treeFolding=1;treeMoving=1;newEdgeStyle={&quot;edgeStyle&quot;:&quot;elbowEdgeStyle&quot;,&quot;startArrow&quot;:&quot;none&quot;,&quot;endArrow&quot;:&quot;none&quot;};" vertex="1" parent="3Z4cpMTlICbvrC6FYX22-18">
          <mxGeometry x="380" y="130" width="100" height="60" as="geometry" />
        </mxCell>
        <mxCell id="3Z4cpMTlICbvrC6FYX22-56" value="" style="edgeStyle=elbowEdgeStyle;elbow=vertical;sourcePerimeterSpacing=0;targetPerimeterSpacing=0;startArrow=none;endArrow=none;rounded=0;curved=0;entryX=0.5;entryY=0;entryDx=0;entryDy=0;exitX=0.5;exitY=1;exitDx=0;exitDy=0;" edge="1" parent="3Z4cpMTlICbvrC6FYX22-18" source="3Z4cpMTlICbvrC6FYX22-15" target="3Z4cpMTlICbvrC6FYX22-28">
          <mxGeometry relative="1" as="geometry">
            <mxPoint x="370" y="110" as="sourcePoint" />
            <mxPoint x="210" y="140" as="targetPoint" />
          </mxGeometry>
        </mxCell>
        <mxCell id="3Z4cpMTlICbvrC6FYX22-57" value="" style="edgeStyle=elbowEdgeStyle;elbow=vertical;sourcePerimeterSpacing=0;targetPerimeterSpacing=0;startArrow=none;endArrow=none;rounded=0;curved=0;entryX=0.5;entryY=0;entryDx=0;entryDy=0;" edge="1" parent="3Z4cpMTlICbvrC6FYX22-18" target="3Z4cpMTlICbvrC6FYX22-32">
          <mxGeometry relative="1" as="geometry">
            <mxPoint x="360" y="100" as="sourcePoint" />
            <mxPoint x="324" y="140" as="targetPoint" />
          </mxGeometry>
        </mxCell>
        <mxCell id="3Z4cpMTlICbvrC6FYX22-58" value="" style="edgeStyle=elbowEdgeStyle;elbow=vertical;sourcePerimeterSpacing=0;targetPerimeterSpacing=0;startArrow=none;endArrow=none;rounded=0;curved=0;entryX=0.5;entryY=0;entryDx=0;entryDy=0;exitX=0.5;exitY=1;exitDx=0;exitDy=0;" edge="1" parent="3Z4cpMTlICbvrC6FYX22-18" source="3Z4cpMTlICbvrC6FYX22-15" target="3Z4cpMTlICbvrC6FYX22-31">
          <mxGeometry relative="1" as="geometry">
            <mxPoint x="380" y="120" as="sourcePoint" />
            <mxPoint x="334" y="150" as="targetPoint" />
          </mxGeometry>
        </mxCell>
        <mxCell id="3Z4cpMTlICbvrC6FYX22-39" style="edgeStyle=orthogonalEdgeStyle;rounded=0;orthogonalLoop=1;jettySize=auto;html=1;" edge="1" parent="3Z4cpMTlICbvrC6FYX22-12" source="3Z4cpMTlICbvrC6FYX22-21">
          <mxGeometry relative="1" as="geometry">
            <mxPoint x="470" y="470" as="targetPoint" />
          </mxGeometry>
        </mxCell>
        <mxCell id="3Z4cpMTlICbvrC6FYX22-21" value="Data Formating Notebooks" style="swimlane;startSize=20;" vertex="1" parent="3Z4cpMTlICbvrC6FYX22-12">
          <mxGeometry x="110" y="270" width="720" height="140" as="geometry" />
        </mxCell>
        <mxCell id="3Z4cpMTlICbvrC6FYX22-25" value="Price_history&lt;br&gt;Format" style="whiteSpace=wrap;html=1;align=center;verticalAlign=middle;treeFolding=1;treeMoving=1;newEdgeStyle={&quot;edgeStyle&quot;:&quot;elbowEdgeStyle&quot;,&quot;startArrow&quot;:&quot;none&quot;,&quot;endArrow&quot;:&quot;none&quot;};" vertex="1" parent="3Z4cpMTlICbvrC6FYX22-21">
          <mxGeometry x="30" y="60" width="100" height="60" as="geometry" />
        </mxCell>
        <mxCell id="3Z4cpMTlICbvrC6FYX22-33" value="Balance_history&lt;br&gt;Format" style="whiteSpace=wrap;html=1;align=center;verticalAlign=middle;treeFolding=1;treeMoving=1;newEdgeStyle={&quot;edgeStyle&quot;:&quot;elbowEdgeStyle&quot;,&quot;startArrow&quot;:&quot;none&quot;,&quot;endArrow&quot;:&quot;none&quot;};" vertex="1" parent="3Z4cpMTlICbvrC6FYX22-21">
          <mxGeometry x="140" y="60" width="100" height="60" as="geometry" />
        </mxCell>
        <mxCell id="3Z4cpMTlICbvrC6FYX22-34" value="Accountability&lt;br&gt;_history Format" style="whiteSpace=wrap;html=1;align=center;verticalAlign=middle;treeFolding=1;treeMoving=1;newEdgeStyle={&quot;edgeStyle&quot;:&quot;elbowEdgeStyle&quot;,&quot;startArrow&quot;:&quot;none&quot;,&quot;endArrow&quot;:&quot;none&quot;};" vertex="1" parent="3Z4cpMTlICbvrC6FYX22-21">
          <mxGeometry x="263.5" y="60" width="100" height="60" as="geometry" />
        </mxCell>
        <mxCell id="3Z4cpMTlICbvrC6FYX22-35" value="Price Format" style="whiteSpace=wrap;html=1;align=center;verticalAlign=middle;treeFolding=1;treeMoving=1;newEdgeStyle={&quot;edgeStyle&quot;:&quot;elbowEdgeStyle&quot;,&quot;startArrow&quot;:&quot;none&quot;,&quot;endArrow&quot;:&quot;none&quot;};" vertex="1" parent="3Z4cpMTlICbvrC6FYX22-21">
          <mxGeometry x="380" y="60" width="100" height="60" as="geometry" />
        </mxCell>
        <mxCell id="3Z4cpMTlICbvrC6FYX22-36" value="Balance Format" style="whiteSpace=wrap;html=1;align=center;verticalAlign=middle;treeFolding=1;treeMoving=1;newEdgeStyle={&quot;edgeStyle&quot;:&quot;elbowEdgeStyle&quot;,&quot;startArrow&quot;:&quot;none&quot;,&quot;endArrow&quot;:&quot;none&quot;};" vertex="1" parent="3Z4cpMTlICbvrC6FYX22-21">
          <mxGeometry x="490" y="60" width="100" height="60" as="geometry" />
        </mxCell>
        <mxCell id="3Z4cpMTlICbvrC6FYX22-37" value="Accountability&lt;br&gt;Format" style="whiteSpace=wrap;html=1;align=center;verticalAlign=middle;treeFolding=1;treeMoving=1;newEdgeStyle={&quot;edgeStyle&quot;:&quot;elbowEdgeStyle&quot;,&quot;startArrow&quot;:&quot;none&quot;,&quot;endArrow&quot;:&quot;none&quot;};" vertex="1" parent="3Z4cpMTlICbvrC6FYX22-21">
          <mxGeometry x="600" y="60" width="100" height="60" as="geometry" />
        </mxCell>
        <mxCell id="3Z4cpMTlICbvrC6FYX22-40" value="Data_Final Notebooks" style="swimlane;startSize=20;" vertex="1" parent="3Z4cpMTlICbvrC6FYX22-12">
          <mxGeometry x="110" y="470" width="720" height="520" as="geometry" />
        </mxCell>
        <mxCell id="3Z4cpMTlICbvrC6FYX22-84" value="" style="edgeStyle=orthogonalEdgeStyle;rounded=0;orthogonalLoop=1;jettySize=auto;html=1;entryX=0.5;entryY=0;entryDx=0;entryDy=0;" edge="1" parent="3Z4cpMTlICbvrC6FYX22-40" source="3Z4cpMTlICbvrC6FYX22-47" target="3Z4cpMTlICbvrC6FYX22-66">
          <mxGeometry relative="1" as="geometry" />
        </mxCell>
        <mxCell id="3Z4cpMTlICbvrC6FYX22-47" value="Calc_History" style="swimlane;startSize=20;" vertex="1" parent="3Z4cpMTlICbvrC6FYX22-40">
          <mxGeometry x="30" y="84" width="250" height="180" as="geometry" />
        </mxCell>
        <mxCell id="3Z4cpMTlICbvrC6FYX22-48" value="Price_history" style="whiteSpace=wrap;html=1;align=center;verticalAlign=middle;treeFolding=1;treeMoving=1;newEdgeStyle={&quot;edgeStyle&quot;:&quot;elbowEdgeStyle&quot;,&quot;startArrow&quot;:&quot;none&quot;,&quot;endArrow&quot;:&quot;none&quot;};" vertex="1" parent="3Z4cpMTlICbvrC6FYX22-47">
          <mxGeometry x="20" y="40" width="100" height="60" as="geometry" />
        </mxCell>
        <mxCell id="3Z4cpMTlICbvrC6FYX22-49" value="Balance_history&lt;br&gt;Format" style="whiteSpace=wrap;html=1;align=center;verticalAlign=middle;treeFolding=1;treeMoving=1;newEdgeStyle={&quot;edgeStyle&quot;:&quot;elbowEdgeStyle&quot;,&quot;startArrow&quot;:&quot;none&quot;,&quot;endArrow&quot;:&quot;none&quot;};" vertex="1" parent="3Z4cpMTlICbvrC6FYX22-47">
          <mxGeometry x="130" y="40" width="100" height="60" as="geometry" />
        </mxCell>
        <mxCell id="3Z4cpMTlICbvrC6FYX22-50" value="Accountability&lt;br&gt;_history Format" style="whiteSpace=wrap;html=1;align=center;verticalAlign=middle;treeFolding=1;treeMoving=1;newEdgeStyle={&quot;edgeStyle&quot;:&quot;elbowEdgeStyle&quot;,&quot;startArrow&quot;:&quot;none&quot;,&quot;endArrow&quot;:&quot;none&quot;};" vertex="1" parent="3Z4cpMTlICbvrC6FYX22-47">
          <mxGeometry x="80" y="110" width="100" height="60" as="geometry" />
        </mxCell>
        <mxCell id="3Z4cpMTlICbvrC6FYX22-66" value="Calc_Current" style="swimlane;startSize=20;" vertex="1" parent="3Z4cpMTlICbvrC6FYX22-40">
          <mxGeometry x="30" y="300" width="250" height="170" as="geometry" />
        </mxCell>
        <mxCell id="3Z4cpMTlICbvrC6FYX22-45" value="Balance Format" style="whiteSpace=wrap;html=1;align=center;verticalAlign=middle;treeFolding=1;treeMoving=1;newEdgeStyle={&quot;edgeStyle&quot;:&quot;elbowEdgeStyle&quot;,&quot;startArrow&quot;:&quot;none&quot;,&quot;endArrow&quot;:&quot;none&quot;};" vertex="1" parent="3Z4cpMTlICbvrC6FYX22-66">
          <mxGeometry x="10" y="35" width="100" height="60" as="geometry" />
        </mxCell>
        <mxCell id="3Z4cpMTlICbvrC6FYX22-44" value="Price Format" style="whiteSpace=wrap;html=1;align=center;verticalAlign=middle;treeFolding=1;treeMoving=1;newEdgeStyle={&quot;edgeStyle&quot;:&quot;elbowEdgeStyle&quot;,&quot;startArrow&quot;:&quot;none&quot;,&quot;endArrow&quot;:&quot;none&quot;};" vertex="1" parent="3Z4cpMTlICbvrC6FYX22-66">
          <mxGeometry x="134" y="35" width="100" height="60" as="geometry" />
        </mxCell>
        <mxCell id="3Z4cpMTlICbvrC6FYX22-46" value="Accountability&lt;br&gt;Format" style="whiteSpace=wrap;html=1;align=center;verticalAlign=middle;treeFolding=1;treeMoving=1;newEdgeStyle={&quot;edgeStyle&quot;:&quot;elbowEdgeStyle&quot;,&quot;startArrow&quot;:&quot;none&quot;,&quot;endArrow&quot;:&quot;none&quot;};" vertex="1" parent="3Z4cpMTlICbvrC6FYX22-66">
          <mxGeometry x="75" y="100" width="100" height="60" as="geometry" />
        </mxCell>
        <mxCell id="3Z4cpMTlICbvrC6FYX22-82" style="edgeStyle=orthogonalEdgeStyle;rounded=0;orthogonalLoop=1;jettySize=auto;html=1;entryX=0.5;entryY=0;entryDx=0;entryDy=0;" edge="1" parent="3Z4cpMTlICbvrC6FYX22-40" source="3Z4cpMTlICbvrC6FYX22-81" target="3Z4cpMTlICbvrC6FYX22-47">
          <mxGeometry relative="1" as="geometry" />
        </mxCell>
        <mxCell id="3Z4cpMTlICbvrC6FYX22-83" value="Yes" style="edgeLabel;html=1;align=center;verticalAlign=middle;resizable=0;points=[];" vertex="1" connectable="0" parent="3Z4cpMTlICbvrC6FYX22-82">
          <mxGeometry x="0.3077" y="-2" relative="1" as="geometry">
            <mxPoint x="-1" y="-15" as="offset" />
          </mxGeometry>
        </mxCell>
        <mxCell id="3Z4cpMTlICbvrC6FYX22-90" style="edgeStyle=orthogonalEdgeStyle;rounded=0;orthogonalLoop=1;jettySize=auto;html=1;entryX=0.533;entryY=0.019;entryDx=0;entryDy=0;entryPerimeter=0;" edge="1" parent="3Z4cpMTlICbvrC6FYX22-40" source="3Z4cpMTlICbvrC6FYX22-81">
          <mxGeometry relative="1" as="geometry">
            <mxPoint x="547.9699999999998" y="69.02600000000007" as="targetPoint" />
            <Array as="points">
              <mxPoint x="548" y="57" />
            </Array>
          </mxGeometry>
        </mxCell>
        <mxCell id="3Z4cpMTlICbvrC6FYX22-91" value="No" style="edgeLabel;html=1;align=center;verticalAlign=middle;resizable=0;points=[];" vertex="1" connectable="0" parent="3Z4cpMTlICbvrC6FYX22-90">
          <mxGeometry x="-0.2501" y="1" relative="1" as="geometry">
            <mxPoint x="40" y="-16" as="offset" />
          </mxGeometry>
        </mxCell>
        <mxCell id="3Z4cpMTlICbvrC6FYX22-81" value="First Run ?" style="html=1;whiteSpace=wrap;aspect=fixed;shape=isoRectangle;" vertex="1" parent="3Z4cpMTlICbvrC6FYX22-40">
          <mxGeometry x="310" y="30" width="90" height="54" as="geometry" />
        </mxCell>
        <mxCell id="3Z4cpMTlICbvrC6FYX22-85" value="Calc_Current" style="swimlane;startSize=20;" vertex="1" parent="3Z4cpMTlICbvrC6FYX22-40">
          <mxGeometry x="427" y="70" width="250" height="170" as="geometry" />
        </mxCell>
        <mxCell id="3Z4cpMTlICbvrC6FYX22-86" value="Balance" style="whiteSpace=wrap;html=1;align=center;verticalAlign=middle;treeFolding=1;treeMoving=1;newEdgeStyle={&quot;edgeStyle&quot;:&quot;elbowEdgeStyle&quot;,&quot;startArrow&quot;:&quot;none&quot;,&quot;endArrow&quot;:&quot;none&quot;};" vertex="1" parent="3Z4cpMTlICbvrC6FYX22-85">
          <mxGeometry x="10" y="35" width="100" height="60" as="geometry" />
        </mxCell>
        <mxCell id="3Z4cpMTlICbvrC6FYX22-87" value="Price" style="whiteSpace=wrap;html=1;align=center;verticalAlign=middle;treeFolding=1;treeMoving=1;newEdgeStyle={&quot;edgeStyle&quot;:&quot;elbowEdgeStyle&quot;,&quot;startArrow&quot;:&quot;none&quot;,&quot;endArrow&quot;:&quot;none&quot;};" vertex="1" parent="3Z4cpMTlICbvrC6FYX22-85">
          <mxGeometry x="134" y="35" width="100" height="60" as="geometry" />
        </mxCell>
        <mxCell id="3Z4cpMTlICbvrC6FYX22-88" value="Accountability&lt;br&gt;" style="whiteSpace=wrap;html=1;align=center;verticalAlign=middle;treeFolding=1;treeMoving=1;newEdgeStyle={&quot;edgeStyle&quot;:&quot;elbowEdgeStyle&quot;,&quot;startArrow&quot;:&quot;none&quot;,&quot;endArrow&quot;:&quot;none&quot;};" vertex="1" parent="3Z4cpMTlICbvrC6FYX22-85">
          <mxGeometry x="75" y="100" width="100" height="60" as="geometry" />
        </mxCell>
        <mxCell id="3Z4cpMTlICbvrC6FYX22-109" value="Calculate_table.xlsx&lt;br&gt;" style="shape=image;html=1;verticalAlign=top;verticalLabelPosition=bottom;labelBackgroundColor=#ffffff;imageAspect=0;aspect=fixed;image=https://cdn3.iconfinder.com/data/icons/document-icons-2/30/647702-excel-128.png" vertex="1" parent="3Z4cpMTlICbvrC6FYX22-12">
          <mxGeometry x="390" y="1180" width="128" height="128" as="geometry" />
        </mxCell>
        <mxCell id="3Z4cpMTlICbvrC6FYX22-95" style="edgeStyle=orthogonalEdgeStyle;rounded=0;orthogonalLoop=1;jettySize=auto;html=1;entryX=0;entryY=0.695;entryDx=0;entryDy=0;exitX=0.5;exitY=1;exitDx=0;exitDy=0;entryPerimeter=0;" edge="1" parent="3Z4cpMTlICbvrC6FYX22-12" source="3Z4cpMTlICbvrC6FYX22-66" target="3Z4cpMTlICbvrC6FYX22-109">
          <mxGeometry relative="1" as="geometry">
            <mxPoint x="329" y="1300" as="targetPoint" />
            <mxPoint x="140" y="1060" as="sourcePoint" />
          </mxGeometry>
        </mxCell>
        <mxCell id="3Z4cpMTlICbvrC6FYX22-111" value="Create Table" style="edgeLabel;html=1;align=center;verticalAlign=middle;resizable=0;points=[];" vertex="1" connectable="0" parent="3Z4cpMTlICbvrC6FYX22-95">
          <mxGeometry x="-0.1053" y="-2" relative="1" as="geometry">
            <mxPoint as="offset" />
          </mxGeometry>
        </mxCell>
        <mxCell id="3Z4cpMTlICbvrC6FYX22-114" style="edgeStyle=orthogonalEdgeStyle;rounded=0;orthogonalLoop=1;jettySize=auto;html=1;entryX=1;entryY=0.672;entryDx=0;entryDy=0;entryPerimeter=0;exitX=0.5;exitY=1;exitDx=0;exitDy=0;" edge="1" parent="3Z4cpMTlICbvrC6FYX22-12" source="3Z4cpMTlICbvrC6FYX22-85" target="3Z4cpMTlICbvrC6FYX22-109">
          <mxGeometry relative="1" as="geometry">
            <mxPoint x="767.02" y="770" as="sourcePoint" />
            <mxPoint x="556.972" y="1356.024" as="targetPoint" />
          </mxGeometry>
        </mxCell>
        <mxCell id="3Z4cpMTlICbvrC6FYX22-115" value="Update Table" style="edgeLabel;html=1;align=center;verticalAlign=middle;resizable=0;points=[];" vertex="1" connectable="0" parent="3Z4cpMTlICbvrC6FYX22-114">
          <mxGeometry x="0.4875" y="2" relative="1" as="geometry">
            <mxPoint as="offset" />
          </mxGeometry>
        </mxCell>
      </root>
    </mxGraphModel>
  </diagram>
</mxfile>
